<svg viewBox="0 0 228 237" fill="none" xmlns="http://www.w3.org/2000/svg">
  <title>Rogue Wave Design</title>
  <path fill-rule="evenodd" clip-rule="evenodd" d="M227.166 56.7918V179.9C227.166 211.244 201.719 236.692 170.374 236.692H56.7916C25.4476 236.692 0 211.244 0 179.9V56.7918C0 25.4473 25.4476 0 56.7916 0H170.374C201.719 0 227.166 25.4473 227.166 56.7918ZM207.014 56.7918C207.014 36.5694 190.596 20.1518 170.374 20.1518H56.7916C36.5696 20.1518 20.1517 36.5694 20.1517 56.7918V179.9C20.1517 200.122 36.5696 216.54 56.7916 216.54H170.374C190.596 216.54 207.014 200.122 207.014 179.9V56.7918Z" fill="#FFDC5A"/>
  <path fill-rule="evenodd" clip-rule="evenodd" d="M211.782 65.1291V171.563C211.782 198.662 189.781 220.663 162.682 220.663H64.4836C37.3849 220.663 15.384 198.662 15.384 171.563V65.1291C15.384 38.03 37.3849 16.0293 64.4836 16.0293H162.682C189.781 16.0293 211.782 38.03 211.782 65.1291Z" fill="#C5C3FF"/>
  <path fill-rule="evenodd" clip-rule="evenodd" d="M211.782 65.1291V171.563C211.782 198.662 189.781 220.663 162.682 220.663H64.4836C37.3849 220.663 15.384 198.662 15.384 171.563V65.1291C15.384 38.03 37.3849 16.0293 64.4836 16.0293H162.682C189.781 16.0293 211.782 38.03 211.782 65.1291ZM194.36 65.1291C194.36 47.6457 180.166 33.4517 162.682 33.4517H64.4836C47.0005 33.4517 32.8063 47.6457 32.8063 65.1291V171.563C32.8063 189.046 47.0005 203.24 64.4836 203.24H162.682C180.166 203.24 194.36 189.046 194.36 171.563V65.1291Z" fill="#3C72C0"/>
  <path fill-rule="evenodd" clip-rule="evenodd" d="M178.061 76.3824C136.275 67.1312 15.2948 182.699 15.2948 155.6V111.353C18.1997 108.7 32.2993 89.6444 53.0427 71.6092C72.3303 54.8399 100.052 48.4847 122.9 49.0379C144.751 49.5669 164.157 60.9545 178.061 76.3824Z" fill="#FFBE00"/>
  <path fill-rule="evenodd" clip-rule="evenodd" d="M211.693 138.02V171.81C211.693 198.909 189.692 220.91 162.593 220.91H64.3944C37.2957 220.91 15.2948 198.909 15.2948 171.81V127.563C18.1997 124.91 34.5611 102.01 55.3045 83.9751C93.0364 51.1691 148.151 49.8472 178.595 76.6964C140.509 71.7409 128.136 121.573 157.661 138.818C186.546 155.691 211.466 137.884 211.693 138.02Z" fill="#FF581F"/>
  <path fill-rule="evenodd" clip-rule="evenodd" d="M211.693 138.02V171.81C211.693 198.909 189.692 220.91 162.593 220.91H64.3944C37.2957 220.91 15.2948 198.909 15.2948 171.81V127.563C18.1997 124.91 34.5611 102.01 55.3045 83.9751C93.0364 51.1691 148.151 49.8472 178.595 76.6964C140.509 71.7409 128.136 121.573 157.661 138.818C186.546 155.691 211.466 137.884 211.693 138.02ZM194.271 162.695C181.736 164.712 165.817 163.76 148.873 153.862C119.438 136.669 117.439 98.1995 135.868 75.8558C117.858 75.396 106.102 82.6176 92.4891 91.6367C78.0097 101.23 64.6852 115.882 53.7391 135.701C24.7398 188.204 98.1282 195.773 115.025 199.624C135.281 204.241 162.593 203.487 162.593 203.487C180.076 203.487 194.271 189.293 194.271 171.81V162.695Z" fill="#FF1A00"/>
</svg>
